<svg xmlns="http://www.w3.org/2000/svg" width="210mm" height="297mm" viewBox="0 0 210 297"><rect width="210" height="297" fill="white"/><path d="M 44.907,91.223 L 44.909,91.171 L 44.914,91.109 L 44.927,91.006 L 44.938,90.945 L 44.949,90.894 L 45.353,89.183 L 45.301,88.833 L 45.295,88.788 L 45.289,88.735 L 45.284,88.646 L 45.283,88.592 L 45.286,88.503 L 45.290,88.450 L 45.301,88.361 L 45.310,88.309 L 45.328,88.221 L 45.342,88.170 L 45.354,88.127 L 45.681,87.063 L 45.943,84.858 L 45.950,84.812 L 45.959,84.758 L 45.978,84.668 L 45.992,84.614 L 46.019,84.526 L 46.038,84.474 L 46.055,84.431 L 46.613,83.092 L 46.730,82.193 L 46.739,82.133 L 46.753,82.062 L 46.783,81.944 L 46.806,81.874 L 46.826,81.817 L 49.028,76.181 L 49.043,76.144 L 49.063,76.100 L 49.080,76.063 L 52.856,68.310 L 52.874,68.275 L 52.896,68.234 L 52.915,68.200 L 56.467,62.156 L 56.502,62.102 L 56.545,62.038 L 56.583,61.986 L 61.224,56.005 L 61.260,55.962 L 61.304,55.911 L 61.342,55.869 L 65.140,51.974 L 65.177,51.938 L 65.223,51.896 L 65.302,51.829 L 65.352,51.792 L 65.438,51.734 L 65.491,51.702 L 65.537,51.677 L 65.979,51.442 L 67.161,50.204 L 67.210,50.156 L 67.271,50.100 L 67.323,50.056 L 69.991,47.934 L 70.028,47.907 L 70.073,47.874 L 70.150,47.824 L 70.198,47.795 L 70.238,47.773 L 71.434,47.140 L 73.386,45.501 L 73.422,45.472 L 73.467,45.438 L 73.544,45.385 L 73.592,45.355 L 73.633,45.331 L 74.890,44.627 L 75.803,43.739 L 76.368,42.330 L 76.330,40.747 L 76.331,40.686 L 76.334,40.613 L 76.346,40.491 L 76.357,40.418 L 76.369,40.358 L 76.550,39.556 L 76.562,39.508 L 76.578,39.451 L 76.609,39.358 L 76.630,39.302 L 76.670,39.212 L 76.697,39.160 L 76.745,39.074 L 76.777,39.024 L 76.834,38.944 L 76.871,38.897 L 76.902,38.859 L 77.484,38.188 L 77.518,38.151 L 77.559,38.108 L 77.632,38.039 L 77.678,38.000 L 77.757,37.939 L 77.806,37.905 L 77.891,37.852 L 77.944,37.823 L 78.033,37.779 L 78.089,37.755 L 78.182,37.720 L 78.240,37.702 L 78.336,37.677 L 78.395,37.664 L 78.444,37.655 L 79.452,37.497 L 79.521,37.489 L 79.604,37.481 L 79.673,37.478 L 92.999,37.250 L 93.006,37.249 L 93.014,37.249 L 93.021,37.249 L 130.347,37.136 L 130.380,37.136 L 130.420,37.137 L 130.453,37.139 L 132.292,37.256 L 132.343,37.260 L 132.403,37.267 L 132.503,37.283 L 132.562,37.296 L 132.660,37.323 L 132.718,37.342 L 132.766,37.359 L 134.030,37.845 L 134.072,37.862 L 134.122,37.884 L 134.203,37.924 L 134.251,37.951 L 134.328,37.998 L 134.373,38.028 L 134.446,38.082 L 134.488,38.117 L 134.522,38.146 L 135.725,39.222 L 135.765,39.259 L 135.811,39.306 L 135.884,39.387 L 135.925,39.438 L 135.989,39.527 L 136.024,39.582 L 136.078,39.677 L 136.107,39.736 L 136.130,39.785 L 136.576,40.830 L 136.596,40.881 L 136.618,40.942 L 136.650,41.045 L 136.665,41.108 L 136.686,41.214 L 136.694,41.278 L 136.700,41.332 L 137.034,45.492 L 137.445,46.215 L 143.558,51.003 L 143.606,51.044 L 143.663,51.094 L 143.709,51.138 L 149.468,56.962 L 149.510,57.006 L 149.557,57.060 L 149.596,57.107 L 153.482,62.124 L 153.517,62.172 L 153.556,62.230 L 153.588,62.280 L 157.526,68.830 L 157.542,68.859 L 157.562,68.894 L 157.577,68.923 L 161.690,76.927 L 161.709,76.967 L 161.732,77.015 L 161.765,77.096 L 161.782,77.146 L 161.808,77.230 L 161.822,77.281 L 161.840,77.367 L 161.849,77.419 L 161.855,77.462 L 161.920,77.987 L 162.692,79.251 L 162.718,79.297 L 162.748,79.352 L 162.793,79.447 L 162.817,79.505 L 162.852,79.604 L 162.870,79.665 L 162.894,79.767 L 162.906,79.829 L 162.919,79.933 L 162.924,79.995 L 162.926,80.048 L 162.932,80.310 L 164.202,83.693 L 164.222,83.750 L 164.243,83.819 L 164.272,83.936 L 164.284,84.007 L 164.293,84.066 L 164.466,85.518 L 164.568,85.663 L 164.595,85.704 L 164.626,85.754 L 164.674,85.839 L 164.701,85.892 L 164.740,85.981 L 164.761,86.036 L 164.792,86.129 L 164.807,86.186 L 164.829,86.281 L 164.839,86.339 L 164.851,86.437 L 164.855,86.495 L 164.857,86.544 L 164.883,87.639 L 165.165,88.425 L 165.184,88.483 L 165.205,88.553 L 165.232,88.672 L 165.244,88.744 L 165.252,88.805 L 165.902,95.206 L 165.906,95.258 L 165.909,95.320 L 165.910,95.371 L 165.890,105.302 L 165.889,105.355 L 165.885,105.419 L 165.881,105.471 L 165.059,113.075 L 165.053,113.125 L 165.043,113.185 L 165.022,113.283 L 165.007,113.341 L 164.977,113.437 L 164.955,113.493 L 164.937,113.540 L 164.532,114.474 L 164.106,116.538 L 164.097,116.577 L 164.086,116.624 L 164.063,116.701 L 164.048,116.747 L 164.034,116.784 L 161.596,123.188 L 161.581,123.226 L 161.561,123.271 L 161.526,123.345 L 161.503,123.389 L 161.483,123.425 L 157.675,129.950 L 157.275,131.644 L 157.370,139.205 L 157.370,139.249 L 157.368,139.301 L 157.362,139.388 L 157.356,139.439 L 157.342,139.525 L 157.331,139.576 L 157.310,139.661 L 157.295,139.710 L 157.281,139.752 L 156.899,140.848 L 156.882,140.894 L 156.860,140.948 L 156.819,141.036 L 156.792,141.088 L 156.743,141.172 L 156.711,141.221 L 156.654,141.299 L 156.618,141.345 L 156.554,141.418 L 156.513,141.459 L 156.442,141.525 L 156.397,141.563 L 156.359,141.593 L 155.742,142.065 L 155.700,142.095 L 155.648,142.131 L 155.559,142.185 L 155.503,142.215 L 155.409,142.260 L 155.350,142.284 L 155.252,142.319 L 155.191,142.336 L 155.089,142.361 L 155.028,142.372 L 154.924,142.385 L 154.861,142.390 L 154.809,142.393 L 137.489,142.799 L 137.478,142.799 L 137.466,142.799 L 137.456,142.799 L 72.274,142.973 L 72.263,142.974 L 59.376,143.360 L 59.305,143.360 L 59.221,143.356 L 59.151,143.351 L 56.131,143.015 L 52.962,143.170 L 52.920,143.172 L 52.870,143.172 L 52.786,143.169 L 52.736,143.165 L 52.694,143.161 L 51.035,142.964 L 50.994,142.958 L 50.945,142.950 L 50.864,142.933 L 50.816,142.922 L 50.736,142.898 L 50.689,142.882 L 50.650,142.868 L 49.334,142.362 L 49.279,142.339 L 49.214,142.310 L 49.109,142.254 L 49.048,142.217 L 48.998,142.185 L 48.222,141.647 L 48.186,141.621 L 48.143,141.589 L 48.075,141.532 L 48.036,141.496 L 47.972,141.433 L 47.936,141.394 L 47.879,141.325 L 47.847,141.283 L 47.796,141.210 L 47.767,141.165 L 47.744,141.127 L 46.690,139.285 L 46.669,139.246 L 46.645,139.200 L 46.608,139.120 L 46.588,139.072 L 46.573,139.031 L 46.442,138.668 L 46.425,138.617 L 46.407,138.556 L 46.382,138.452 L 46.370,138.388 L 46.356,138.282 L 46.351,138.218 L 46.348,138.164 L 46.216,132.511 L 46.215,132.507 L 46.215,132.501 L 46.215,132.497 L 45.817,104.719 L 44.950,99.521 L 44.941,99.450 L 44.933,99.366 L 44.928,99.295 L 44.823,94.781 L 44.822,94.757 L 44.822,94.729 L 44.823,94.705 L 44.907,91.223 Z" fill="#223352"/><path d="M 68.152,122.717 L 60.693,128.102 L 59.639,126.643 L 67.098,121.257 Z" fill="#fff"/><path d="M 60.965,108.673 L 52.127,111.229 L 51.627,109.500 L 60.465,106.944 Z" fill="#fff"/><path d="M 60.116,84.444 L 51.203,82.163 L 51.649,80.420 L 60.562,82.700 Z" fill="#fff"/><path d="M 71.389,63.436 L 64.807,57.008 L 66.064,55.720 L 72.646,62.148 Z" fill="#fff"/><path d="M 91.648,50.867 L 89.156,42.011 L 90.889,41.523 L 93.381,50.379 Z" fill="#fff"/><path d="M 115.477,50.097 L 117.742,41.181 L 119.487,41.624 L 117.222,50.541 Z" fill="#fff"/><path d="M 136.505,61.333 L 142.921,54.740 L 144.211,55.995 L 137.795,62.589 Z" fill="#fff"/><path d="M 149.110,81.571 L 157.962,79.064 L 158.452,80.796 L 149.600,83.303 Z" fill="#fff"/><path d="M 149.921,105.399 L 158.842,107.648 L 158.402,109.394 L 149.481,107.144 Z" fill="#fff"/><path d="M 145.705,116.659 L 153.741,121.138 L 152.865,122.710 L 144.829,118.231 Z" fill="#fff"/><path d="M 55.507,95.920 L 50.107,95.979 L 50.099,95.229 L 55.499,95.170 Z" fill="#fff"/><path d="M 61.664,71.075 L 56.957,68.430 L 57.324,67.776 L 62.032,70.421 Z" fill="#fff"/><path d="M 79.408,52.628 L 76.651,47.984 L 77.296,47.601 L 80.053,52.245 Z" fill="#fff"/><path d="M 103.994,45.509 L 103.925,40.109 L 104.675,40.100 L 104.744,45.499 Z" fill="#fff"/><path d="M 128.849,51.622 L 131.486,46.910 L 132.141,47.277 L 129.503,51.989 Z" fill="#fff"/><path d="M 147.328,69.334 L 151.966,66.569 L 152.350,67.213 L 147.712,69.978 Z" fill="#fff"/><path d="M 154.489,93.907 L 159.889,93.829 L 159.900,94.579 L 154.500,94.657 Z" fill="#fff"/><text x="72.976" y="121.023" font-family="Liberation Sans" font-weight="bold" font-size="8.056" fill="#fff" text-anchor="middle">0</text><text x="67.055" y="108.875" font-family="Liberation Sans" font-weight="bold" font-size="8.056" fill="#fff" text-anchor="middle">10</text><text x="66.733" y="88.108" font-family="Liberation Sans" font-weight="bold" font-size="8.056" fill="#fff" text-anchor="middle">20</text><text x="76.740" y="70.303" font-family="Liberation Sans" font-weight="bold" font-size="8.056" fill="#fff" text-anchor="middle">30</text><text x="94.302" y="59.876" font-family="Liberation Sans" font-weight="bold" font-size="8.056" fill="#fff" text-anchor="middle">40</text><text x="114.725" y="59.616" font-family="Liberation Sans" font-weight="bold" font-size="8.056" fill="#fff" text-anchor="middle">50</text><text x="132.547" y="69.591" font-family="Liberation Sans" font-weight="bold" font-size="8.056" fill="#fff" text-anchor="middle">60</text><text x="143.005" y="87.135" font-family="Liberation Sans" font-weight="bold" font-size="8.056" fill="#fff" text-anchor="middle">70</text><text x="143.301" y="107.558" font-family="Liberation Sans" font-weight="bold" font-size="8.056" fill="#fff" text-anchor="middle">80</text><path d="M 71.905,100.205 L 69.926,100.495 L 69.825,99.803 L 71.803,99.512 Z" fill="#fff"/><text x="75.713" y="100.693" font-family="Liberation Sans" font-weight="bold" font-size="3.889" fill="#fff" text-anchor="middle">20</text><path d="M 75.503,79.116 L 73.752,78.149 L 74.091,77.536 L 75.841,78.503 Z" fill="#fff"/><text x="79.087" y="82.094" font-family="Liberation Sans" font-weight="bold" font-size="3.889" fill="#fff" text-anchor="middle">40</text><path d="M 91.130,64.504 L 90.321,62.675 L 90.961,62.392 L 91.770,64.221 Z" fill="#fff"/><text x="93.028" y="69.329" font-family="Liberation Sans" font-weight="bold" font-size="3.889" fill="#fff" text-anchor="middle">60</text><path d="M 112.413,62.329 L 112.876,60.383 L 113.557,60.545 L 113.094,62.491 Z" fill="#fff"/><text x="111.851" y="67.604" font-family="Liberation Sans" font-weight="bold" font-size="3.889" fill="#fff" text-anchor="middle">80</text><path d="M 130.673,73.477 L 132.219,72.208 L 132.663,72.749 L 131.117,74.018 Z" fill="#fff"/><text x="127.881" y="77.621" font-family="Liberation Sans" font-weight="bold" font-size="3.889" fill="#fff" text-anchor="middle">100</text><path d="M 138.464,93.402 L 140.462,93.327 L 140.488,94.027 L 138.490,94.101 Z" fill="#fff"/><text x="134.579" y="95.297" font-family="Liberation Sans" font-weight="bold" font-size="3.889" fill="#fff" text-anchor="middle">120</text><path d="M 132.608,113.979 L 134.244,115.129 L 133.841,115.701 L 132.205,114.551 Z" fill="#fff"/><text x="129.216" y="113.422" font-family="Liberation Sans" font-weight="bold" font-size="3.889" fill="#fff" text-anchor="middle">140</text><text x="105.000" y="123.600" font-family="Liberation Sans" font-weight="bold" font-size="5.833" fill="#fff" text-anchor="middle">mph</text><text x="105.000" y="129.700" font-family="Liberation Sans" font-weight="bold" font-size="3.333" fill="#fff" text-anchor="middle">km/h</text><text x="105.164" y="85.929" font-family="Liberation Sans" font-weight="bold" font-size="2.222" fill="#fff" text-anchor="middle" letter-spacing="0.3">kilometers</text><path d="M 46.206,91.262 L 46.209,91.223 L 46.216,91.185 L 46.632,89.421 L 46.635,89.407 L 46.648,89.337 L 46.652,89.309 L 46.657,89.252 L 46.658,89.224 L 46.658,89.167 L 46.657,89.138 L 46.650,89.068 L 46.648,89.054 L 46.587,88.648 L 46.584,88.614 L 46.584,88.588 L 46.586,88.561 L 46.590,88.535 L 46.598,88.502 L 46.930,87.424 L 46.934,87.411 L 46.950,87.346 L 46.956,87.319 L 46.967,87.253 L 46.969,87.239 L 47.233,85.018 L 47.239,84.984 L 47.246,84.958 L 47.258,84.925 L 47.828,83.555 L 47.833,83.543 L 47.856,83.481 L 47.864,83.455 L 47.878,83.404 L 47.884,83.378 L 47.895,83.313 L 47.897,83.300 L 48.018,82.370 L 48.026,82.325 L 48.040,82.282 L 50.236,76.660 L 50.251,76.627 L 54.022,68.884 L 54.039,68.854 L 57.583,62.823 L 57.616,62.775 L 62.246,56.809 L 62.279,56.771 L 66.065,52.887 L 66.094,52.861 L 66.119,52.842 L 66.152,52.822 L 66.631,52.568 L 66.645,52.561 L 66.714,52.519 L 66.740,52.501 L 66.792,52.462 L 66.816,52.442 L 66.875,52.387 L 66.886,52.375 L 68.095,51.108 L 68.140,51.067 L 70.795,48.956 L 70.823,48.936 L 70.853,48.918 L 72.066,48.276 L 72.079,48.268 L 72.147,48.228 L 72.173,48.210 L 72.237,48.162 L 72.249,48.152 L 74.216,46.502 L 74.244,46.481 L 74.274,46.462 L 75.559,45.742 L 75.570,45.736 L 75.626,45.701 L 75.648,45.687 L 75.689,45.655 L 75.710,45.639 L 75.758,45.595 L 75.768,45.586 L 76.759,44.622 L 76.770,44.611 L 76.823,44.553 L 76.843,44.529 L 76.880,44.479 L 76.898,44.453 L 76.930,44.400 L 76.945,44.372 L 76.977,44.301 L 76.984,44.287 L 77.599,42.752 L 77.604,42.738 L 77.629,42.666 L 77.637,42.637 L 77.651,42.578 L 77.657,42.548 L 77.664,42.488 L 77.667,42.458 L 77.669,42.382 L 77.669,42.367 L 77.630,40.726 L 77.632,40.680 L 77.639,40.635 L 77.816,39.849 L 77.826,39.813 L 77.837,39.786 L 77.850,39.759 L 77.866,39.734 L 77.889,39.705 L 78.461,39.045 L 78.487,39.018 L 78.510,38.999 L 78.535,38.982 L 78.561,38.967 L 78.588,38.955 L 78.617,38.946 L 78.654,38.938 L 79.644,38.783 L 79.706,38.777 L 93.020,38.549 L 93.026,38.549 L 130.346,38.436 L 130.376,38.437 L 132.203,38.552 L 132.240,38.557 L 132.270,38.563 L 132.306,38.575 L 133.557,39.056 L 133.588,39.070 L 133.612,39.083 L 133.634,39.098 L 133.661,39.120 L 134.852,40.185 L 134.881,40.214 L 134.902,40.240 L 134.919,40.267 L 134.937,40.304 L 135.378,41.334 L 135.392,41.372 L 135.399,41.403 L 135.405,41.443 L 135.743,45.669 L 135.745,45.685 L 135.756,45.766 L 135.762,45.798 L 135.778,45.862 L 135.788,45.893 L 135.811,45.955 L 135.824,45.985 L 135.860,46.058 L 135.868,46.072 L 136.346,46.913 L 136.354,46.926 L 136.393,46.987 L 136.410,47.011 L 136.446,47.057 L 136.465,47.079 L 136.505,47.121 L 136.526,47.141 L 136.581,47.189 L 136.592,47.198 L 142.749,52.021 L 142.791,52.059 L 148.538,57.869 L 148.574,57.910 L 152.449,62.913 L 152.479,62.957 L 156.409,69.495 L 156.423,69.521 L 160.531,77.516 L 160.545,77.546 L 160.554,77.570 L 160.560,77.596 L 160.566,77.628 L 160.638,78.216 L 160.641,78.232 L 160.655,78.310 L 160.662,78.341 L 160.680,78.402 L 160.690,78.433 L 160.714,78.491 L 160.728,78.520 L 160.766,78.590 L 160.774,78.604 L 161.579,79.922 L 161.597,79.957 L 161.609,79.986 L 161.618,80.016 L 161.624,80.047 L 161.627,80.086 L 161.634,80.391 L 161.635,80.408 L 161.642,80.492 L 161.646,80.525 L 161.659,80.591 L 161.667,80.623 L 161.692,80.703 L 161.697,80.719 L 162.982,84.142 L 162.995,84.185 L 163.003,84.229 L 163.185,85.757 L 163.187,85.771 L 163.200,85.844 L 163.206,85.873 L 163.222,85.930 L 163.231,85.958 L 163.252,86.013 L 163.264,86.041 L 163.290,86.093 L 163.305,86.119 L 163.344,86.182 L 163.352,86.194 L 163.499,86.403 L 163.519,86.434 L 163.532,86.461 L 163.542,86.488 L 163.550,86.516 L 163.555,86.545 L 163.558,86.582 L 163.584,87.718 L 163.585,87.735 L 163.591,87.815 L 163.596,87.847 L 163.607,87.910 L 163.615,87.941 L 163.638,88.018 L 163.643,88.033 L 163.939,88.856 L 163.952,88.900 L 163.959,88.945 L 164.608,95.330 L 164.610,95.376 L 164.590,105.292 L 164.588,105.339 L 163.768,112.928 L 163.762,112.965 L 163.754,112.994 L 163.741,113.030 L 163.329,113.981 L 163.323,113.995 L 163.296,114.067 L 163.287,114.096 L 163.267,114.171 L 163.264,114.186 L 162.834,116.270 L 162.827,116.299 L 162.817,116.327 L 160.383,122.719 L 160.371,122.747 L 160.357,122.775 L 156.529,129.334 L 156.522,129.347 L 156.488,129.413 L 156.476,129.440 L 156.454,129.495 L 156.444,129.523 L 156.424,129.594 L 156.420,129.608 L 156.003,131.376 L 155.999,131.394 L 155.984,131.484 L 155.980,131.520 L 155.975,131.611 L 155.975,131.630 L 156.070,139.215 L 156.069,139.248 L 156.066,139.273 L 156.061,139.299 L 156.051,139.330 L 155.674,140.414 L 155.660,140.448 L 155.647,140.473 L 155.631,140.498 L 155.613,140.520 L 155.592,140.541 L 155.564,140.565 L 154.959,141.027 L 154.927,141.049 L 154.899,141.064 L 154.870,141.076 L 154.840,141.085 L 154.809,141.090 L 154.770,141.093 L 137.460,141.499 L 137.451,141.499 L 72.263,141.673 L 72.259,141.673 L 72.235,141.674 L 72.231,141.674 L 59.347,142.060 L 59.284,142.058 L 56.255,141.721 L 56.243,141.719 L 56.183,141.715 L 56.159,141.714 L 56.099,141.715 L 56.087,141.715 L 52.905,141.872 L 52.873,141.872 L 52.842,141.870 L 51.195,141.674 L 51.165,141.669 L 51.140,141.663 L 51.111,141.653 L 49.809,141.152 L 49.769,141.134 L 49.731,141.110 L 48.967,140.582 L 48.941,140.562 L 48.921,140.544 L 48.903,140.524 L 48.887,140.503 L 48.869,140.475 L 47.821,138.644 L 47.806,138.615 L 47.794,138.585 L 47.668,138.236 L 47.657,138.197 L 47.651,138.166 L 47.648,138.126 L 47.515,132.482 L 47.515,132.478 L 47.117,104.681 L 47.116,104.670 L 47.114,104.613 L 47.111,104.591 L 47.104,104.535 L 47.103,104.524 L 46.234,99.317 L 46.228,99.254 L 46.122,94.754 L 46.122,94.733 L 46.206,91.262 Z" fill="none" stroke="#8b93a6" stroke-width="0.1"/><rect x="87.814" y="76.929" width="34.700" height="6.100" rx="1.0" fill="none" stroke="#8b93a6" stroke-width="0.1"/><circle cx="105.275" cy="95.202" r="3.875" fill="none" stroke="#8b93a6" stroke-width="0.1"/><circle cx="51.509" cy="124.286" r="3.350" fill="none" stroke="#8b93a6" stroke-width="0.1"/><circle cx="90.086" cy="95.232" r="1.700" fill="none" stroke="#8b93a6" stroke-width="0.1"/><circle cx="120.457" cy="95.208" r="1.700" fill="none" stroke="#8b93a6" stroke-width="0.1"/><rect x="50.752" y="135.154" width="4.500" height="4.500" rx="0.6" fill="none" stroke="#8b93a6" stroke-width="0.1"/><rect x="148.287" y="133.106" width="5.800" height="4.550" rx="2.2" fill="none" stroke="#8b93a6" stroke-width="0.1"/><text x="105.000" y="16.000" font-family="Liberation Sans" font-weight="bold" font-size="5.556" fill="#222" text-anchor="middle">Subaru Sambar TT2 — mph / km/h speedometer overlay  (1:1)</text><line x1="55" y1="170" x2="155" y2="170" stroke="#111" stroke-width="0.15"/><line x1="55" y1="168" x2="55" y2="172" stroke="#111" stroke-width="0.15"/><line x1="155" y1="168" x2="155" y2="172" stroke="#111" stroke-width="0.15"/><text x="105.000" y="177.300" font-family="Liberation Sans" font-weight="bold" font-size="3.611" fill="#111" text-anchor="middle">100.0 mm horizontal</text><line x1="183" y1="45" x2="183" y2="145" stroke="#111" stroke-width="0.15"/><line x1="181" y1="45" x2="185" y2="45" stroke="#111" stroke-width="0.15"/><line x1="181" y1="145" x2="185" y2="145" stroke="#111" stroke-width="0.15"/><text x="183.000" y="153.300" font-family="Liberation Sans" font-weight="bold" font-size="3.611" fill="#111" text-anchor="middle">100.0 mm vertical</text><text x="40.000" y="193.300" font-family="Liberation Sans" font-weight="bold" font-size="3.611" fill="#111" text-anchor="start">colour check vs plate:</text><rect x="88" y="188" width="13" height="9" fill="rgb(28,42,68)"/><text x="94.500" y="201.500" font-family="Liberation Sans" font-weight="bold" font-size="2.778" fill="#555" text-anchor="middle">-16%</text><rect x="104" y="188" width="13" height="9" fill="rgb(31,46,75)"/><text x="110.500" y="201.500" font-family="Liberation Sans" font-weight="bold" font-size="2.778" fill="#555" text-anchor="middle">-8%</text><rect x="120" y="188" width="13" height="9" fill="rgb(34,51,82)"/><text x="126.500" y="201.500" font-family="Liberation Sans" font-weight="bold" font-size="2.778" fill="#555" text-anchor="middle">base</text><rect x="136" y="188" width="13" height="9" fill="rgb(37,55,89)"/><text x="142.500" y="201.500" font-family="Liberation Sans" font-weight="bold" font-size="2.778" fill="#555" text-anchor="middle">+9%</text><rect x="152" y="188" width="13" height="9" fill="rgb(40,60,96)"/><text x="158.500" y="201.500" font-family="Liberation Sans" font-weight="bold" font-size="2.778" fill="#555" text-anchor="middle">+18%</text><text x="14.000" y="212.950" font-family="Liberation Sans" font-weight="bold" font-size="2.639" fill="#333" text-anchor="start">PRINT AT 100% / ACTUAL SIZE - never 'fit to page'. Check both rules = 100.0 mm with calipers (each axis).</text><text x="14.000" y="217.550" font-family="Liberation Sans" font-weight="bold" font-size="2.639" fill="#333" text-anchor="start">Test on plain paper and dry-fit over the plate before printing on matte white vinyl; laminate matte for UV.</text><text x="14.000" y="222.150" font-family="Liberation Sans" font-weight="bold" font-size="2.639" fill="#333" text-anchor="start">Cut on the grey hairlines. Blue bleeds 1 mm past the outer cut line, so small cutting errors stay invisible.</text><text x="14.000" y="226.750" font-family="Liberation Sans" font-weight="bold" font-size="2.639" fill="#333" text-anchor="start">Register by odometer window + spindle hole. Apertures are cut 0.4 mm oversize for clearance.</text><text x="14.000" y="231.350" font-family="Liberation Sans" font-weight="bold" font-size="2.639" fill="#333" text-anchor="start">mph primary: majors 10, minors 5, end mark 85. Inner ring km/h. 0-20 km/h is non-linear; 10 mph is calibrated to it.</text></svg>